<svg width="1200" height="900" viewBox="0 0 1200 900" fill="none" xmlns="http://www.w3.org/2000/svg">
  <rect width="1200" height="900" rx="48" fill="#FFF7ED"/>
  <rect x="180" y="260" width="840" height="420" rx="36" fill="#FDE68A"/>
  <rect x="220" y="220" width="760" height="120" rx="24" fill="#F59E0B"/>
  <rect x="250" y="340" width="120" height="220" rx="18" fill="#FB923C"/>
  <rect x="390" y="340" width="120" height="220" rx="18" fill="#F97316"/>
  <rect x="530" y="340" width="120" height="220" rx="18" fill="#FB923C"/>
  <rect x="670" y="340" width="120" height="220" rx="18" fill="#F97316"/>
  <rect x="810" y="340" width="120" height="220" rx="18" fill="#FB923C"/>
  <path d="M270 560C270 524.654 298.654 496 334 496H866C901.346 496 930 524.654 930 560V580H270V560Z" fill="#7C2D12"/>
  <circle cx="369" cy="217" r="16" fill="#FDE68A"/>
  <circle cx="773" cy="213" r="16" fill="#FDE68A"/>
  <rect x="220" y="160" width="760" height="40" rx="20" fill="#EA580C"/>
  <path d="M420 150C420 119.072 444.072 95 475 95H725C755.928 95 780 119.072 780 150V160H420V150Z" fill="#BE123C"/>
  <text x="600" y="730" text-anchor="middle" font-family="Arial, sans-serif" font-size="38" font-weight="700" fill="#9A2C00">Farewell Cake Shop</text>
</svg>
